<svg width="107px" height="63px" viewBox="0 0 107 63" version="1.1" xmlns="http://www.w3.org/2000/svg" xmlns:xlink="http://www.w3.org/1999/xlink">
  <title>d.logo</title>
  <desc>Created by David Puerto with Sketch Beta.</desc>
  <defs></defs>
  <g id="icon-d-dot" stroke="none" stroke-width="1" fill="rgba(255, 255, 255, 1.0)" fill-rule="evenodd">
    <path d="M59.75,0.44921875 C74.1712781,3.84416792 87.1832967,10.863918 87.1832967,28.9955797 C87.1832967,47.1272414 71.8580613,61.8258574 52.9534255,61.8258574 L0.451171875,61.8258574 L11.8085937,49.8875746 L52.9534255,49.8875746 C64.9836483,49.8875746 74.7360708,40.5339099 74.7360708,28.9955797 C74.7360708,17.4572495 62.3974103,11.4804688 50.3671875,11.4804688 L59.75,0.44921875 Z" id="D" fill-rule="nonzero"></path>
    <path d="M92.8161526,60.6133756 C91.2278268,59.0589039 90.4336758,57.232427 90.4336758,55.1338903 C90.4336758,53.0353535 91.2359304,51.2244212 92.8404636,49.7010389 C94.4449968,48.1776567 96.341235,47.415977 98.5292348,47.415977 C100.717235,47.415977 102.605369,48.1776567 104.193695,49.7010389 C105.782021,51.2244212 106.576172,53.0353535 106.576172,55.1338903 C106.576172,57.232427 105.782021,59.0511316 104.193695,60.5900586 C102.605369,62.1289856 100.717235,62.8984375 98.5292348,62.8984375 C96.341235,62.8984375 94.4368933,62.1367578 92.8161526,60.6133756 Z" id="."></path>
  </g>
</svg>